<svg xmlns="http://www.w3.org/2000/svg" xml:space="preserve" viewBox="0 0 512 512"><path fill="#1a1a1a" d="M434 147c-5-5-13-1-20-2h-1q-6 1-6-6v-17q1-5-5-5l-18 1q-5 0-4-5V95q1-5-5-5h-73q-6 0-5 5v18q1 5-5 5h-15q-9-2-8 7v15q1 6-5 6h-17q-5 0-5-6v-17q1-5-5-5h-18q-5 1-5-5V95q0-5-4-5h-74q-5 0-5 5l1 17q1 6-6 6h-15q-7-1-7 6v15q1 7-6 7H83q-7-2-7 6v87c0 17 0 17 17 17 11 0 11 0 11 11 0 16 0 16 16 16h6q5 0 5 6c0 7-3 17 2 21q9 3 22 1 4-2 4 3v15c0 10 0 10 10 10 18 0 18 0 17 18 0 9-1 9 9 9 19 0 19 1 19 19q-2 11 9 9t18 1q3 8 1 18-2 11 9 9 10 0 17-1 4-8 1-18-1-11 9-9 11 2 17-1c5-3 2-12 2-18q-1-10 9-9 10 3 17-1c4-3 1-11 2-17 0-9 0-9 9-9h9q10 2 9-9c0-19 0-19 19-18q11 1 9-9-3-11 1-18c4-4 11-1 17-1h2q9 1 7-7-2-12 1-19c5-5 13-1 19-1q9 0 8-8v-82c0-8 3-16-1-20m-248 21q0 6-5 5l-16-1q-7 0-7 7v71q1 6-4 5h-18q-6 1-5-5v-72q0-7 5-6l14 1q8 1 9-7v-16q-1-5 4-5h2c27 1 20-6 21 23"/></svg>
